<svg data-name="Layer 1" xmlns="http://www.w3.org/2000/svg" width="928.526" height="635.213" viewBox="0 0 928.526 635.213"><circle cx="546.409" cy="233" r="233" fill="#f2f2f2"/><path d="M131.411 563.346a39.063 39.063 0 0037.721-6.645c13.212-11.09 17.355-29.359 20.725-46.275l9.97-50.036-20.872 14.372c-15.01 10.335-30.358 21-40.75 35.97s-14.93 35.406-6.58 51.604" fill="#e6e6e6"/><path d="M133.195 623.924c-2.112-15.387-4.284-30.972-2.802-46.525 1.316-13.812 5.53-27.303 14.108-38.364a63.82 63.82 0 0116.374-14.838c1.638-1.033 3.145 1.562 1.514 2.59a60.672 60.672 0 00-23.999 28.957c-5.224 13.29-6.063 27.776-5.163 41.894.544 8.537 1.698 17.018 2.861 25.489a1.554 1.554 0 01-1.047 1.845 1.51 1.51 0 01-1.846-1.048z" fill="#f2f2f2"/><path d="M272.996 602.73a22.264 22.264 0 0020.462 7.607c9.693-1.644 16.996-9.432 23.529-16.778l19.325-21.728-14.405 1.05c-10.36.755-20.98 1.575-30.405 5.94s-17.546 13.104-18.11 23.475" fill="#e6e6e6"/><path d="M256.412 633.03c3.396-8.175 6.82-16.464 12.032-23.683 4.629-6.412 10.59-11.83 17.996-14.796a36.374 36.374 0 0112.328-2.575c1.103-.036 1.096 1.674-.003 1.71a34.58 34.58 0 00-20.146 7.32c-6.4 5.027-10.988 11.908-14.615 19.109-2.193 4.354-4.07 8.857-5.94 13.357a.886.886 0 01-1.047.605.86.86 0 01-.605-1.047z" fill="#f2f2f2"/><path d="M153.543 596.696a28.755 28.755 0 0025.054 12.93c12.683-.601 23.257-9.453 32.775-17.857l28.154-24.857-18.633-.892c-13.4-.641-27.145-1.24-39.908 2.893S156.452 582.99 154.12 596.2" fill="#e6e6e6"/><path d="M127.225 632.77c10.168-17.992 21.962-37.987 43.035-44.377a48.022 48.022 0 0118.101-1.87c1.922.166 1.442 3.129-.476 2.963a44.614 44.614 0 00-28.887 7.643c-8.145 5.544-14.486 13.251-19.854 21.425-3.288 5.006-6.233 10.225-9.178 15.437-.942 1.666-3.693.464-2.74-1.221z" fill="#f2f2f2"/><path d="M566.333 325.681c20.217-11.111 45.379-8.881 67.161-1.284s41.522 20.043 62.676 29.249c64.64 28.13 142.548 23.595 203.486-11.848 5.764 13.406-.419 28.74-7.21 41.656s-14.533 26.914-11.737 41.236c3.578 18.327 22.793 29.315 30.579 46.288 7.39 16.111 3.424 35.032-2.246 51.827s-13.028 33.715-12.065 51.415 13.823 36.416 31.549 36.43c-26.27 4.082-53.056 8.166-79.31 3.983s-52.368-18.068-64.557-41.693c-6.093-11.808-8.442-25.386-15.439-36.682-11.918-19.24-34.791-28.289-56.372-35.108s-44.676-13.388-59.871-30.162c-14.478-15.982-19.064-38.246-26.734-58.4a186.537 186.537 0 00-64.589-84.23" fill="#6c63ff"/><path d="M589.758 241.944c-7.097-3.301-15.81-4.383-23.032-1.316s-12.145 10.932-9.81 17.891c1.06 3.156 3.47 6.259 2.531 9.445-.723 2.453-3.245 4.073-5.723 5.224s-5.187 2.12-6.978 4.062-2.165 5.285.073 6.791c.737.496 1.659.731 2.374 1.254a3.772 3.772 0 011.164 4.223 8.893 8.893 0 01-2.85 3.75c-2.541 2.191-5.899 4.699-5.11 7.809a5.478 5.478 0 003.697 3.458 18.367 18.367 0 005.427.716l74.966 2.362a28.422 28.422 0 007.402-.414 8.762 8.762 0 005.813-3.905c1.435-2.657.493-5.93-1.28-8.412s-4.282-4.438-6.356-6.717-3.769-5.122-3.404-8.067c.293-2.358 1.848-4.395 2.964-6.537s1.764-4.818.319-6.789c-2.037-2.776-6.927-2.525-9.243-5.113-1.748-1.952-1.41-4.763-1.584-7.28-.418-6.057-4.611-11.777-10.58-14.434a20.83 20.83 0 00-18.954 1.291z" fill="#2f2e41"/><path fill="#a0616a" d="M542.385 622.099l-11.741-3.528 8.019-46.967 17.329 5.207-13.607 45.288z"/><path d="M541.96 634.38l-37.858-11.375.144-.479a15.386 15.386 0 0119.162-10.308h.001l23.123 6.947z" fill="#2f2e41"/><path fill="#a0616a" d="M653.182 622.496l-12.26-.001-5.832-47.288 18.094.001-.002 47.288z"/><path d="M656.308 634.38l-39.53-.002v-.5a15.386 15.386 0 0115.386-15.386h.001l24.144.001zM636.163 586.73a4.5 4.5 0 01-4.441-3.788l-18.203-113.555a3.5 3.5 0 00-6.689-.79L559.67 582.135a4.516 4.516 0 01-5.579 2.544l-17.034-5.679a4.485 4.485 0 01-2.966-5.26l38.649-171.022a4.525 4.525 0 013.372-3.392l51.832-12.032a4.562 4.562 0 013.708.77c34.13 24.799 31.247 105.821 24.886 193.798a4.502 4.502 0 01-4.295 4.174l-15.881.69c-.066.003-.132.005-.198.005z" fill="#2f2e41"/><circle cx="592.532" cy="282.471" r="24.561" fill="#a0616a"/><path d="M593.592 409.768a39.899 39.899 0 01-17.024-3.935l-.182-.085-.073-.188-22.03-57.076-.418-9.917a23.773 23.773 0 0125.09-24.74l23.388 1.317a23.787 23.787 0 0122.436 23.61c.608 1.167 4.922 10.292-3.533 18.865-.316 1.953-3.273 22.247 7.887 33.408l.314.313-.274.349c-.178.226-14.51 18.076-35.581 18.079z" fill="#3f3d56"/><path d="M626.434 414.074a10.056 10.056 0 005.277-14.489l23.359-27.043-18.415-2.397-19.358 26.048a10.11 10.11 0 009.137 17.88z" fill="#a0616a"/><path d="M641.038 393.2a4.49 4.49 0 01-2.468-.74l-11.553-7.577a4.491 4.491 0 01-1.4-6.064l8.364-14.052a6.272 6.272 0 00-2.824-8.932l-24.027-10.772a14.324 14.324 0 01-8.112-15.915 14.24 14.24 0 0120.432-9.754l36.452 18.679a19.177 19.177 0 016.805 28.289l-18.02 24.97a4.489 4.489 0 01-3.649 1.868z" fill="#3f3d56"/><path d="M567.405 278.979c7.756-.623 14.196-8.372 13.39-16.111a13.01 13.01 0 0011.14 13.246c3.559.392 7.46-.685 10.556 1.11 3.43 1.988 4.528 6.816 8.101 8.533 3.453 1.659 7.838-.604 9.543-4.033s1.288-7.55.157-11.21a31.652 31.652 0 00-52.69-12.975c-3.26 3.28-5.85 7.461-6.27 12.068s1.717 9.605 5.854 11.675z" fill="#2f2e41"/><path d="M510.264 210.944a10.056 10.056 0 013.105 15.104l19.159 30.165-18.567-.319-15.347-28.596a10.11 10.11 0 0111.65-16.354z" fill="#a0616a"/><path d="M525.707 232.424l24.673 58.302 25.87 43.864a14.189 14.189 0 01-8.121 20.79 14.265 14.265 0 01-16.951-7.57L501.321 241.28a4.5 4.5 0 012.7-6.192l16.165-5.193a4.6 4.6 0 01.943-.197 4.474 4.474 0 014.578 2.727z" fill="#3f3d56"/><path d="M757 635.213H1a1 1 0 010-2h756a1 1 0 010 2zM597.858 108.213v82a1 1 0 11-2 0v-82a1 1 0 012 0zM684.684 177.778L656.4 206.062a1 1 0 01-1.415-1.414l28.285-28.285a1 1 0 111.414 1.415zM509.033 177.778l28.284 28.284a1 1 0 001.414-1.414l-28.284-28.285a1 1 0 10-1.414 1.415z" fill="#ccc"/></svg>